<svg>
  <symbol id="array" viewBox="0 0 8 6" fill="none" xmlns="http://www.w3.org/2000/svg">
    <path d="M1 1.5L4 4.5L7 1.5" stroke="currentColor" stroke-width="1.5"/>
  </symbol>

  <symbol id="triangle" viewBox="0 0 5 7" fill="none" xmlns="http://www.w3.org/2000/svg">
    <path fill-rule="evenodd" clip-rule="evenodd" d="M5 3.5L0 7V0L5 3.5Z" fill="currentColor"/>
  </symbol>

  <symbol id="blockquote" viewBox="0 0 38 38" fill="none" xmlns="http://www.w3.org/2000/svg">
    <path fill-rule="evenodd" clip-rule="evenodd" d="M38 19C38 29.4934 29.4934 38 19 38C8.50659 38 0 29.4934 0 19C0 8.50659 8.50659 0 19 0C29.4934 0 38 8.50659 38 19ZM14.0262 12.8445C11.7763 12.8445 10 14.6603 10 16.8707C10 18.9628 11.6184 20.6996 13.6709 20.8574C13.2367 21.6074 12.4868 22.4363 11.1842 23.2258C10.8289 23.4232 10.5921 23.8179 10.5921 24.2126C10.5921 25.0415 11.421 25.5941 12.171 25.2784C14.342 24.2915 18.0129 21.8837 18.0129 16.8707C18.0524 14.6603 16.2366 12.8445 14.0262 12.8445ZM19.9865 16.8707C19.9865 14.6603 21.7627 12.8445 24.0126 12.8445C26.2231 12.8445 28.0388 14.6603 27.9994 16.8707C27.9994 21.8837 24.3284 24.2915 22.1574 25.2784C21.4075 25.5941 20.5785 25.0415 20.5785 24.2126C20.5785 23.8179 20.8154 23.4232 21.1706 23.2258C22.4732 22.4363 23.2232 21.6074 23.6574 20.8574C21.6048 20.6996 19.9865 18.9628 19.9865 16.8707Z" fill="currentColor"/>
  </symbol>

  <symbol id="star" viewBox="0 0 25 23" fill="none" xmlns="http://www.w3.org/2000/svg">
    <path fill-rule="evenodd" clip-rule="evenodd" d="M12.9653 19.4946C12.674 19.3415 12.326 19.3415 12.0347 19.4946L6.35837 22.4788C5.62474 22.8645 4.76731 22.2416 4.90742 21.4247L5.9915 15.104C6.04713 14.7796 5.93959 14.4486 5.7039 14.2189L1.11169 9.7426C0.51817 9.16406 0.845679 8.15609 1.6659 8.0369L8.01218 7.11473C8.33789 7.06741 8.61946 6.86284 8.76512 6.56769L11.6033 0.816987C11.9701 0.0737408 13.0299 0.0737399 13.3967 0.816986L16.2349 6.56769C16.3805 6.86284 16.6621 7.06741 16.9878 7.11473L23.3341 8.0369C24.1543 8.15609 24.4818 9.16406 23.8883 9.7426L19.2961 14.2189C19.0604 14.4486 18.9529 14.7796 19.0085 15.104L20.0926 21.4247C20.2327 22.2416 19.3753 22.8645 18.6416 22.4788L12.9653 19.4946Z" fill="currentColor"/>
  </symbol>

  <symbol id="close" viewBox="0 0 22 22" fill="none" xmlns="http://www.w3.org/2000/svg">
    <path fill-rule="evenodd" clip-rule="evenodd" d="M9.58579 11L4.63604 15.9498L6.05025 17.364L11 12.4142L15.9497 17.364L17.364 15.9498L12.4142 11L17.364 6.05026L15.9497 4.63604L11 9.58579L6.05025 4.63604L4.63604 6.05026L9.58579 11Z" fill="currentColor"/>
  </symbol>

  <symbol id="menu" viewBox="0 0 20 8" fill="none" xmlns="http://www.w3.org/2000/svg">
    <path d="M0 1H20" stroke="currentColor" stroke-width="2"/>
    <path d="M0 7H20" stroke="currentColor" stroke-width="2"/>
  </symbol>
</svg>
