<?xml version="1.0" standalone="no"?>
<!DOCTYPE svg PUBLIC "-//W3C//DTD SVG 20010904//EN"
 "http://www.w3.org/TR/2001/REC-SVG-20010904/DTD/svg10.dtd">
<svg version="1.0" xmlns="http://www.w3.org/2000/svg"
 width="70.000000pt" height="70.000000pt" viewBox="0 0 70.000000 70.000000"
 preserveAspectRatio="xMidYMid meet">
<metadata>
Created by potrace 1.14, written by Peter Selinger 2001-2017
</metadata>
<g transform="translate(0.000000,70.000000) scale(0.100000,-0.100000)"
fill="#000000" stroke="none">
<path d="M230 409 c0 -156 -6 -179 -50 -179 -23 0 -50 26 -50 49 0 14 -9 17
-47 16 -47 -1 -48 -1 -44 -30 5 -46 28 -83 64 -101 42 -22 128 -22 161 -1 48
32 57 67 58 210 0 201 5 182 -47 183 l-45 0 0 -147z"/>
<path d="M434 549 c-47 -13 -84 -53 -85 -91 -3 -88 18 -112 127 -143 43 -12
83 -30 88 -38 16 -26 -11 -47 -59 -47 -34 0 -48 5 -63 24 -15 20 -28 25 -61
24 -23 0 -44 -4 -47 -9 -10 -17 39 -88 73 -104 71 -34 182 -24 223 20 33 36
43 93 22 135 -17 36 -20 37 -162 81 -46 14 -65 43 -38 60 25 16 77 10 99 -12
18 -18 91 -30 104 -17 9 9 -35 88 -57 102 -29 19 -121 27 -164 15z"/>
</g>
</svg>
